<svg width="25" height="25" viewBox="0 0 25 25" fill="none" xmlns="http://www.w3.org/2000/svg">
<g clip-path="url(#clip0)">
<path d="M24.2866 17.6658L18.8179 15.3221C18.5843 15.2225 18.3246 15.2015 18.078 15.2623C17.8315 15.3231 17.6113 15.4623 17.4507 15.659L15.0288 18.618C11.2279 16.8259 8.16904 13.767 6.37695 9.96611L9.33594 7.54423C9.53305 7.38392 9.67256 7.16375 9.73335 6.91706C9.79414 6.67037 9.7729 6.41059 9.67285 6.17705L7.3291 0.708297C7.21929 0.456544 7.02508 0.250995 6.77996 0.127096C6.53483 0.00319587 6.25416 -0.0312893 5.98633 0.0295866L0.908203 1.20146C0.649985 1.26109 0.419602 1.40648 0.254656 1.6139C0.0897096 1.82133 -5.94829e-05 2.07854 2.95713e-08 2.34355C2.95713e-08 14.868 10.1514 24.9998 22.6562 24.9998C22.9213 25 23.1787 24.9103 23.3862 24.7453C23.5937 24.5803 23.7392 24.3499 23.7988 24.0916L24.9707 19.0135C25.0312 18.7443 24.996 18.4625 24.8711 18.2166C24.7463 17.9706 24.5396 17.7758 24.2866 17.6658Z" fill="black"/>
</g>
<defs>
<clipPath id="clip0">
<rect width="25" height="25" fill="white"/>
</clipPath>
</defs>
</svg>
